<svg width="28" height="24" fill="none" xmlns="http://www.w3.org/2000/svg"><path d="M15.207 5.405c0 1.467.383 2.697 1.15 3.695.543.687 1.28 1.138 2.211 1.353.917.214 1.784.229 2.567.047.267 1.583-.167 3.26-1.267 5.037-1.1 1.775-2.525 3.111-4.263 4.005l2.635 3.791c1.333-.66 2.6-1.496 3.767-2.508a19.1 19.1 0 003.166-3.49 13.83 13.83 0 002.084-4.483c.45-1.684.575-3.4.36-5.167-.28-2.333-1.034-4.2-2.26-5.583C24.132.7 22.603 0 20.777 0c-1.609 0-2.944.483-4 1.463-1.047.96-1.567 2.275-1.567 3.947l-.003-.005zM0 5.405C0 6.872.383 8.102 1.15 9.1c.543.7 1.283 1.153 2.212 1.362.933.206 1.788.216 2.566.036.267 1.567-.15 3.25-1.253 5.034-1.1 1.766-2.522 3.1-4.26 4l2.628 3.801a18.011 18.011 0 003.767-2.508 18.813 18.813 0 003.157-3.49c.926-1.317 1.616-2.8 2.066-4.483.456-1.683.579-3.438.362-5.167-.277-2.333-1.027-4.2-2.25-5.583C8.923.712 7.4.015 5.573.015c-1.611 0-2.946.483-4.003 1.462C.525 2.437 0 3.752 0 5.423v-.018z" fill="#28B0B5" fill-opacity=".8"/></svg>