<?xml version="1.0" encoding="utf-8"?><!DOCTYPE svg PUBLIC "-//W3C//DTD SVG 1.1//EN" "http://www.w3.org/Graphics/SVG/1.1/DTD/svg11.dtd"><svg viewBox="0 0 502.66 502.66" xmlns="http://www.w3.org/2000/svg" xmlns:xlink="http://www.w3.org/1999/xlink"><style>:root>svg{display:none}:root>svg:target{display:block}</style><svg viewBox="0 0 25 25" id="about__answer" xmlns="http://www.w3.org/2000/svg"><path d="M15.625 4.167v7.291H5.385l-.614.615-.604.604v-8.51h11.458zm1.042-2.084H3.125c-.573 0-1.042.47-1.042 1.042v14.583l4.167-4.166h10.417c.573 0 1.041-.47 1.041-1.042V3.125c0-.573-.468-1.042-1.041-1.042zm5.208 4.167h-2.083v9.375H6.25v2.083c0 .573.469 1.042 1.042 1.042H18.75l4.167 4.167V7.292c0-.573-.47-1.042-1.042-1.042z"/></svg><svg viewBox="0 0 22 25" id="about__doctor" xmlns="http://www.w3.org/2000/svg"><g clip-path="url(#bclip0_28_54)"><path d="M6.802 8.435l.146-.012a.318.318 0 00.147-.055h-.001c.14.482.31.988.524 1.518.274.694.543 1.264.846 1.814l-.042-.083c-.025.379-.055.768-.095 1.145a2.67 2.67 0 01-.134.654l.005-.02c-.013.006-.03 2.167-.03 2.167a2.987 2.987 0 002.29 2.904l.02.004a.4.4 0 01.372-.256h.598a.406.406 0 01.37.253l.002.003a2.997 2.997 0 002.322-2.905v-.001s-.037-2.152-.056-2.167a3.278 3.278 0 01-.127-.618v-.015c-.037-.38-.061-.76-.095-1.146.257-.465.527-1.034.764-1.62l.04-.11c.213-.53.379-1.036.524-1.518a.31.31 0 00.144.055h.002l.146.013c.178.018.334-.128.348-.354l.159-2.011v-.002a.333.333 0 00-.291-.33h-.02a7.44 7.44 0 00-.252-3.124l.014.053A4.448 4.448 0 0012.213.127l-.026-.004a6.092 6.092 0 00-1.035-.117h-.022A5.717 5.717 0 0010.05.13l.037-.006a4.474 4.474 0 00-3.243 2.52l-.012.028a7.34 7.34 0 00-.234 3.11l-.004-.04a.33.33 0 00-.294.327v.007l.158 2.011c.015.232.173.371.344.353l.001-.004z"/><path d="M22.308 21.748c-.073-3.167-.39-3.883-.56-4.369-.068-.195-.123-1.511-2.298-2.366-1.333-.524-3.054-.535-4.51-1.15v1.712a3.784 3.784 0 01-3.067 3.708l-.024.005a.4.4 0 01-.39.333h-.018v1.292a2.285 2.285 0 004.57 0v-.903a1.3 1.3 0 11.613-.057l-.01.003v1.006a2.89 2.89 0 01-5.779 0v-.053.003-1.304a.397.397 0 01-.364-.33v-.003a3.786 3.786 0 01-3.077-3.704v-1.726c-1.463.628-3.194.64-4.535 1.166-2.18.854-2.23 2.167-2.298 2.365-.166.487-.487 1.201-.56 4.37-.012.417 0 1.055 1.256 1.613 2.736 1.073 6.26 1.407 9.734 1.646h.333c3.481-.237 7-.57 9.733-1.646 1.251-.555 1.263-1.19 1.251-1.61v-.001zM7.016 20.456H5.718v1.303H4.79V20.46H3.493v-.927H4.79v-1.298h.927v1.298h1.298v.923zM16.901 18.713z"/></g><defs><clipPath id="bclip0_28_54"><path fill="#fff" d="M0 0h21.875v25H0z"/></clipPath></defs></svg><svg viewBox="0 0 25 25" id="about__home" xmlns="http://www.w3.org/2000/svg"><path d="M17.708 7.292h2.084v2.083h-2.084V7.292zm0 4.166h2.084v2.084h-2.084v-2.084zm0 4.167h2.084v2.083h-2.084v-2.083zM1.042 11.458v10.417h6.25v-5.208h2.083v5.208h6.25V11.458L8.333 6.25l-7.291 5.208zm12.5 8.334h-2.084v-5.209h-6.25v5.209H3.125V12.5l5.208-3.646 5.209 3.646v7.292z"/><path d="M10.417 3.125v2.052l2.083 1.49V5.208h9.375v14.584h-4.167v2.083h6.25V3.125H10.417z"/></svg><svg viewBox="0 0 25 25" id="about__korporat" xmlns="http://www.w3.org/2000/svg"><g clip-path="url(#dclip0_28_37)"><path d="M12.5 2a12.5 12.5 0 100 25 12.5 12.5 0 000-25zm-.43 1.434a11.092 11.092 0 11.43 22.174 11.092 11.092 0 01-.43-22.174zm.43.545a.191.191 0 00-.18.137l-.919 2.63a.407.407 0 000 .102.313.313 0 00.139.26.964.964 0 01.077 1.526 2.442 2.442 0 00-.855 1.865v.94L6.11 8.77l-.57.992 5.195 2.997v.721l-.627.362-5.185-3-.574.993L8.96 14.5l-.814.469a2.444 2.444 0 00-1.174 1.683.969.969 0 01-1.367.696.305.305 0 00-.37.066L3.42 19.534a.196.196 0 00.183.318l2.743-.513a.376.376 0 00.094-.037.312.312 0 00.158-.248.965.965 0 011.283-.813 2.442 2.442 0 002.036-.192l.812-.47v5.317h1.144V16.9l.623-.358.623.358v5.996h1.146V17.56l.812.47a2.443 2.443 0 002.036.19.964.964 0 011.285.815.297.297 0 00.155.248c.03.017.061.029.094.037l2.744.512a.192.192 0 00.183-.317l.004.02-1.816-2.122a.41.41 0 00-.079-.065.312.312 0 00-.291 0 .978.978 0 01-.9-.037.97.97 0 01-.452-.659 2.467 2.467 0 00-1.188-1.676l-.814-.469 4.62-2.664-.572-.995L14.9 13.84l-.627-.362v-.72l5.193-2.998-.57-.992-4.624 2.67v-.941a2.443 2.443 0 00-.837-1.864.96.96 0 01.083-1.526.321.321 0 00.133-.26.281.281 0 000-.101l-.963-2.632a.192.192 0 00-.187-.136zm.022 5.742a.623.623 0 01.604.623v1.76l-.622.362-.623-.363v-1.76a.622.622 0 01.64-.621V9.72zm-.018 3.977l.716.407v.814l-.716.407-.716-.406v-.815l.716-.407zm2.395 1.461l1.52.883a.623.623 0 01.233.85v.005a.627.627 0 01-.854.228l-1.526-.88v-.724l.627-.362zm-4.787.005l.627.361v.72l-1.526.88a.624.624 0 01-.623-1.08l1.521-.882z"/></g><defs><clipPath id="dclip0_28_37"><path fill="#fff" d="M0 0h25v25H0z"/></clipPath></defs></svg><svg viewBox="0 0 25 25" id="about__structure" xmlns="http://www.w3.org/2000/svg"><path d="M7.031 6.25a.781.781 0 100-1.563.781.781 0 000 1.563z"/><path d="M21.094 17.297v-3.235A1.563 1.563 0 0019.53 12.5h-6.25V9.375h7.031a1.563 1.563 0 001.563-1.563V3.125a1.563 1.563 0 00-1.563-1.563H4.688a1.562 1.562 0 00-1.562 1.563v4.688a1.562 1.562 0 001.563 1.562h7.03V12.5h-6.25a1.563 1.563 0 00-1.562 1.563v3.234a3.124 3.124 0 101.563 0v-3.235h6.25v3.126H9.375v6.25h6.25v-6.25h-2.344v-3.125h6.25v3.234a3.125 3.125 0 101.563 0zM6.25 20.312a1.563 1.563 0 11-3.126 0 1.563 1.563 0 013.126 0zm7.813-1.562v3.125h-3.126V18.75h3.126zM4.687 7.812V3.125h15.625v4.688H4.688zm15.625 14.063a1.563 1.563 0 110-3.125 1.563 1.563 0 010 3.125z"/></svg><svg viewBox="0 0 61 62" id="arrow-circle-right" xmlns="http://www.w3.org/2000/svg"><path d="M30.53 1.943c-15.792 0-28.594 13.011-28.594 29.062 0 16.051 12.802 29.063 28.594 29.063 15.792 0 28.593-13.012 28.593-29.063 0-16.05-12.801-29.062-28.593-29.062zm17.523 46.872c-4.345 4.403-10.148 7.004-16.277 7.297A24.436 24.436 0 0114.9 50.396c-4.731-3.97-7.839-9.588-8.718-15.76a25.423 25.423 0 013.966-17.626c3.43-5.17 8.632-8.857 14.591-10.343a24.34 24.34 0 0117.644 2.309c5.394 2.97 9.508 7.876 11.538 13.76a25.48 25.48 0 01-.555 18.073 25.136 25.136 0 01-5.312 8.006z"/><path d="M28.55 19.979l8.942 9.088H15.266v3.875h22.226l-8.941 9.089 2.695 2.74L44.79 31.005 31.246 17.239l-2.695 2.74z"/></svg><svg viewBox="0 0 51 16" id="arrow-link" xmlns="http://www.w3.org/2000/svg"><path d="M50.707 8.712a1 1 0 000-1.414L44.343.934A1 1 0 1042.93 2.35l5.657 5.656-5.657 5.657a1 1 0 001.414 1.414l6.364-6.364zM0 9.005h50v-2H0v2z"/></svg><svg viewBox="0 0 284.929 284.929" id="arrow-up" xmlns="http://www.w3.org/2000/svg"><path d="M17.128 167.872c1.903 1.902 4.093 2.854 6.567 2.854s4.664-.952 6.567-2.854L142.466 55.666l112.208 112.206c1.902 1.902 4.093 2.854 6.563 2.854 2.478 0 4.668-.952 6.57-2.854l14.274-14.277c1.902-1.902 2.847-4.093 2.847-6.563 0-2.475-.951-4.665-2.847-6.567L149.028 7.419c-1.901-1.906-4.088-2.853-6.562-2.853s-4.665.95-6.567 2.853L2.856 140.464C.95 142.367 0 144.554 0 147.034c0 2.468.953 4.658 2.856 6.561l14.272 14.277z"/><path d="M149.028 117.055c-1.901-1.906-4.088-2.856-6.562-2.856s-4.665.953-6.567 2.856L2.856 250.1C.95 252.003 0 254.192 0 256.67c0 2.472.953 4.661 2.856 6.564l14.272 14.276c1.903 1.903 4.093 2.848 6.567 2.848s4.664-.951 6.567-2.848l112.204-112.209L254.674 277.51c1.902 1.903 4.093 2.852 6.563 2.852 2.478 0 4.668-.948 6.57-2.852l14.274-14.276c1.902-1.903 2.847-4.093 2.847-6.564 0-2.478-.951-4.667-2.847-6.57L149.028 117.055z"/></svg><svg fill="none" viewBox="0 0 25 14" id="eye" xmlns="http://www.w3.org/2000/svg"><path d="M12.5 0C4.299 0 0 6.04 0 7c0 .957 4.299 7 12.5 7C20.7 14 25 7.957 25 7c0-.96-4.3-7-12.5-7zm0 12.384c-3.069 0-5.556-2.41-5.556-5.384S9.43 1.614 12.5 1.614 18.055 4.026 18.055 7s-2.486 5.384-5.555 5.384zM12.5 7c-.509-.559.829-2.692 0-2.692-1.535 0-2.779 1.206-2.779 2.692 0 1.486 1.244 2.693 2.779 2.693 1.534 0 2.779-1.207 2.779-2.693 0-.684-2.347.474-2.779 0z" fill="#fff"/></svg><svg viewBox="0 0 13 13" id="fb" xmlns="http://www.w3.org/2000/svg"><path d="M12.5 2.073C12.5.972 11.528 0 10.428 0H2.072C.972 0 0 .972 0 2.073v8.354C0 11.529.972 12.5 2.073 12.5h4.21V7.772H4.727V5.699h1.554v-.841c0-1.425 1.037-2.656 2.332-2.656h1.684v2.073H8.614c-.194 0-.389.194-.389.583v.841h2.073v2.073H8.225V12.5h2.203c1.1 0 2.072-.972 2.072-2.072V2.072z"/></svg><svg viewBox="0 0 502.664 502.664" id="icon" xmlns="http://www.w3.org/2000/svg"><g fill="#010002"><path d="M153.821 358.226L0 274.337v-46.463l153.821-83.414v54.574L46.636 250.523l107.185 53.431v54.272zM180.094 387.584L282.103 115.08h32.227L212.084 387.584h-31.99zM348.843 358.226v-54.272l107.164-52.999-107.164-52.59v-53.927l153.821 83.522v46.183l-153.821 84.083z"/></g></svg><svg viewBox="0 0 13 13" id="insta" xmlns="http://www.w3.org/2000/svg"><path d="M10.721 0H1.78C.769 0 0 .77 0 1.779v8.942c0 1.01.77 1.779 1.779 1.779h8.942c1.01 0 1.779-.77 1.779-1.779V1.78C12.5.769 11.73 0 10.721 0zM6.25 10C8.317 10 10 8.365 10 6.394c0-.336-.048-.72-.144-1.01h1.058v5.097c0 .24-.193.48-.481.48H2.067a.482.482 0 01-.48-.48V5.337h1.105a3.66 3.66 0 00-.144 1.01C2.5 8.364 4.183 10 6.25 10zm0-1.442c-1.346 0-2.404-1.058-2.404-2.356 0-1.298 1.058-2.356 2.404-2.356 1.346 0 2.404 1.058 2.404 2.356 0 1.346-1.058 2.356-2.404 2.356zm4.615-5.145c0 .289-.24.53-.529.53H8.99a.534.534 0 01-.528-.53V2.115c0-.288.24-.528.528-.528h1.346c.289 0 .53.24.53.528v1.298z"/></svg><svg viewBox="0 0 220 40" id="logo" xmlns="http://www.w3.org/2000/svg"><path d="M21.095 3.208c-.43 1.866-1.049 5.406-1.335 7.845-1.239 9.902 1.764 17.938 8.388 22.626l1.43 1.004-2.192 2.823c-5.338 6.792-10.438 8.61-17.634 6.362-4.528-1.435-4.528-1.388-3.337-4.066 1.478-3.349 3.86-6.027 7.626-8.61C15.9 29.9 17.33 28.8 17.234 28.704c-.333-.383-5.957 1.722-7.625 2.822-1.001.718-2.812 2.44-4.052 3.923-2.43 2.87-5.91 8.753-5.528 9.375.429.67 7.197 3.3 10.58 4.114 6.34 1.483 12.392.096 16.777-3.875 1.049-1.004 2.955-3.396 4.146-5.31 1.192-1.96 2.383-3.395 2.622-3.252.81.479 5.528-.765 6.577-1.77 1.573-1.483 1.287-2.344-.763-2.344-2.192 0-6.005-1.004-8.054-2.056-6.053-3.158-8.389-9.424-7.34-19.613.286-2.63.572-4.879.62-4.974.476-.43 6.195 2.965 7.435 4.448 2.716 3.062 4.813 8.371 4.813 12.246 0 3.109.81 2.392 1.144-1.005.667-6.792-1.906-13.441-6.625-16.933C29.912 2.97 25.098.578 23.144.1c-1.191-.288-1.287-.144-2.05 3.108zM148.352 4.491c-4.332 2-8.464 6.532-10.33 11.464-1.267 3.2-1.6 5.265-1.6 10.93 0 6.265.133 7.399 1.8 10.998 3.599 7.73 8.331 11.063 16.662 11.53 6.398.4 10.131-.867 14.529-4.999 10.131-9.464 9.465-30.858-1.133-38.123-5.465-3.799-14.063-4.532-19.928-1.8zm13.064.8c5.198 2.666 8.664 10.73 8.731 20.261.133 9.265-1.667 14.93-5.999 19.529-7.265 7.531-17.395 2.732-20.528-9.731-1.466-5.665-.999-16.729 1-21.794 1.533-4.133 5.465-8.398 8.464-9.331 2.266-.733 5.799-.267 8.332 1.066zM197.139 3.825c-3.332 1.2-6.798 3.932-9.197 7.265-2.933 3.999-4.199 9.13-4.132 16.129.066 7.931 1.799 12.796 6.198 17.062 3.799 3.732 7.931 5.265 14.063 5.265 3.866 0 5.132-.333 8.931-2.333l4.399-2.332.666 2C219.4 50.611 220 48.88 220 41.214c0-5.732-.2-7.665-.866-7.665-.467 0-1.133 1.6-1.6 4.066-1.4 7.531-6.198 11.064-14.13 10.464-5.332-.4-8.197-2.6-10.997-8.465-1.999-4.198-2.066-4.732-2.066-13.063 0-10.33 1.133-14.396 5.332-18.728 3.333-3.533 6.865-4.599 11.397-3.6 6.198 1.4 9.664 5.066 10.664 11.198.267 1.733.8 2.8 1.333 2.8.733 0 .933-1.534.933-7.332 0-7.332-.6-9.065-1.933-5.332-.666 2.066-1.666 2.532-2.466 1.266-.2-.4-1.999-1.466-3.865-2.333-3.933-1.8-10.464-2.132-14.597-.666zM48.712 4.225c0 .333.6.666 1.333.666s1.933.6 2.666 1.333c1.266 1.267 1.333 2.2 1.333 19.262 0 10.197-.267 18.728-.666 19.728-.4 1.133-1.334 1.8-2.666 2.066-4 .8-1.867 1.6 4.332 1.6 3.799 0 6.331-.267 6.331-.667s-.733-.666-1.666-.666c-.933 0-2.266-.6-3-1.333-1.265-1.267-1.332-2.2-1.332-19.795 0-10.13.133-18.262.333-18.129.133.2 6.132 9.331 13.197 20.262 7.065 10.93 13.196 19.994 13.596 20.128.6.2.867-5.465 1-20.262.133-11.263.466-21.06.8-21.727.333-.667 1.4-1.4 2.466-1.6 3.865-.733 1.8-1.533-4.066-1.533-3.532 0-5.998.267-5.998.667 0 .333.6.666 1.266.666s1.866.534 2.666 1.133c1.4 1.2 1.4 1.6 1.266 16.396l-.2 15.13-10.997-16.996L59.71 3.558h-5.465c-3.266 0-5.532.267-5.532.667zM94.034 4.092c0 .333.932.8 1.999 1.066 1.333.267 2.266.933 2.666 2.066.4 1 .666 9.33.666 18.995 0 9.664-.266 17.995-.666 18.995-.4 1.133-1.333 1.8-2.666 2.066-4.332.867-1.6 1.6 5.998 1.6 8.065 0 9.864-.534 5.865-1.667-2.732-.8-2.999-1.999-3.132-12.196l-.067-7.465h4.599c6.465 0 7.331.933 9.464 10.73 2.066 9.531 3.399 11.264 8.398 11.264 2.066 0 3.066-.466 4.532-2 1.4-1.466 1.6-1.999.867-1.999-.6 0-1.4.467-1.867 1-2.266 2.733-3.932.4-5.998-8.264-1.666-6.932-3.066-8.998-6.932-10.331l-2.599-.867 2.466-.866c3.199-1.066 6.998-4.399 8.131-7.131 2.266-5.332.334-10.464-5.065-13.53-2.799-1.6-3.666-1.666-14.796-1.866-7.398-.2-11.864 0-11.864.4zM116.56 6.69c2.532 1.866 3.666 4.599 3.666 8.864 0 7.265-3 10.264-10.464 10.264l-4.732.067v-9.398c0-11.53.199-11.863 5.798-11.463 2.533.2 4.532.8 5.732 1.666z"/></svg><svg viewBox="0 0 25 25" id="mail" xmlns="http://www.w3.org/2000/svg"><path d="M19.531 14.063l-1.104 1.104 2.016 2.02h-6.38a3.125 3.125 0 100 6.25h1.562v-1.562h-1.563a1.563 1.563 0 010-3.125h6.381l-2.018 2.021 1.106 1.104 3.907-3.906-3.907-3.907z"/><path d="M7.813 17.188H3.125L3.123 5.395l8.933 6.185a.781.781 0 00.889 0l8.93-6.182V12.5h1.563V4.687a1.564 1.564 0 00-1.563-1.562H3.125a1.563 1.563 0 00-1.563 1.56v12.503a1.565 1.565 0 001.563 1.562h4.688v-1.563zm12.343-12.5l-7.656 5.3-7.655-5.3h15.31z"/></svg><svg fill="none" viewBox="0 0 40 40" id="pacient__home" xmlns="http://www.w3.org/2000/svg"><path d="M31.667 21.667v10.666a1 1 0 01-1 1H9.333a1 1 0 01-1-1V21.667M5 15.833l15-9.166 15 9.166H5z" stroke="#FFB625" stroke-width="1.25" stroke-linecap="round" stroke-linejoin="round"/><path d="M22.778 28.333h-5.556v-3.888h-3.889v-5.557h3.889V15h5.556v3.888h3.889v5.557h-3.889v3.888z" stroke="#FFB625" stroke-width="1.25" stroke-linecap="round" stroke-linejoin="round"/></svg><svg fill="none" viewBox="0 0 40 40" id="pacient__list" xmlns="http://www.w3.org/2000/svg"><path d="M30 34.167a.833.833 0 00.833-.834V16.667h-7.5A3.333 3.333 0 0120 13.333v-7.5H10a.833.833 0 00-.833.834v8.75a1.25 1.25 0 01-2.5 0v-8.75A3.333 3.333 0 0110 3.333h10.287c.046 0 .091.007.136.012.033.005.066.01.099.012.358.025.711.093 1.04.23.095.04.186.093.276.145l.084.048.078.04c.047.021.092.046.135.073.13.089.247.194.365.3l.06.05a.83.83 0 01.082.067l9.715 9.713c.625.625.976 1.473.976 2.357v16.953A3.334 3.334 0 0130 36.667H10a3.333 3.333 0 01-3.333-3.334v-6.25a1.25 1.25 0 112.5 0v6.25a.833.833 0 00.833.834h20zm-1.037-20L22.5 7.702v5.631a.833.833 0 00.833.834h5.63zm-24.38 7.5h4.175l2.595-5.919a1.25 1.25 0 012.212-.151l.01.016.083.172L17.68 25.83l2.378-3.5a1.252 1.252 0 01.909-.648l.016-.004.179-.011h3.333a1.25 1.25 0 01.188 2.486l-.016.002-.172.012h-2.59l-3.298 5.156a1.25 1.25 0 01-2.177.067l-.008-.015-.084-.168-3.893-9.725-1.725 3.936a1.248 1.248 0 01-.94.732l-.02.003-.183.014H4.583a1.25 1.25 0 01-.188-2.487l.017-.002.171-.011z" fill="#FFB625"/></svg><svg fill="none" viewBox="0 0 40 40" id="pacient__people" xmlns="http://www.w3.org/2000/svg"><path d="M37.5 35s2.5 0 2.5-2.5-2.5-10-12.5-10S15 30 15 32.5s2.5 2.5 2.5 2.5h20zm-19.945-2.5a.64.64 0 01-.055-.01c.003-.66.418-2.575 1.9-4.3 1.38-1.617 3.805-3.19 8.1-3.19 4.293 0 6.718 1.575 8.1 3.19 1.483 1.725 1.895 3.642 1.9 4.3l-.02.005a.685.685 0 01-.035.005h-19.89zm9.945-15a5 5 0 100-10 5 5 0 000 10zm7.5-5a7.5 7.5 0 11-15 0 7.5 7.5 0 0115 0zM17.34 23.2a14.7 14.7 0 00-3.075-.617A18.378 18.378 0 0012.5 22.5C2.5 22.5 0 30 0 32.5 0 34.167.833 35 2.5 35h10.54a5.596 5.596 0 01-.54-2.5c0-2.525.943-5.105 2.725-7.26a13.229 13.229 0 012.115-2.04zM12.3 25a13.733 13.733 0 00-2.3 7.5H2.5c0-.65.41-2.575 1.9-4.31 1.362-1.59 3.73-3.14 7.9-3.188V25zM3.75 13.75a7.5 7.5 0 1115 0 7.5 7.5 0 01-15 0zm7.5-5a5 5 0 100 10 5 5 0 000-10z" fill="#FFB625"/></svg><svg viewBox="0 0 20 20" id="phone" xmlns="http://www.w3.org/2000/svg"><path d="M15 8.125h-1.25a1.877 1.877 0 00-1.875-1.875V5A3.129 3.129 0 0115 8.125z"/><path d="M17.5 8.125h-1.25a4.38 4.38 0 00-4.375-4.375V2.5A5.631 5.631 0 0117.5 8.125zM16.25 18.125h-.106C3.862 17.419 2.119 7.056 1.875 3.894A1.875 1.875 0 013.75 1.875h3.294a1.25 1.25 0 011.162.788L9.156 5a1.25 1.25 0 01-.275 1.35L7.55 7.694a5.85 5.85 0 004.737 4.75l1.357-1.344A1.25 1.25 0 0115 10.844l2.356.944a1.25 1.25 0 01.769 1.162v3.3a1.875 1.875 0 01-1.875 1.875zm-12.5-15a.625.625 0 00-.625.675c.287 3.7 2.131 12.45 13.087 13.075a.625.625 0 00.662-.586l.001-.039v-3.3l-2.356-.944-1.794 1.781-.3-.037C6.987 13.069 6.25 7.631 6.25 7.575l-.038-.3 1.775-1.794-.937-2.356h-3.3z"/></svg><svg viewBox="0 0 25 25" id="pin" xmlns="http://www.w3.org/2000/svg"><path d="M12.5 4.667a3.98 3.98 0 100 7.958 3.98 3.98 0 000-7.958zm0 6.57a2.59 2.59 0 112.59-2.591 2.59 2.59 0 01-2.59 2.583v.007z"/><path d="M20.674 9.368a5.202 5.202 0 01-1.39-.23v.397c0 2.82-1.68 5.326-2.909 7.16l-.25.367a56.47 56.47 0 01-3.632 4.792c-.82-.993-2.437-3-3.632-4.791l-.236-.396c-1.23-1.834-2.917-4.34-2.917-7.16a6.785 6.785 0 019.959-5.972c.055-.478.177-.945.36-1.39A8.16 8.16 0 004.32 9.536c0 3.243 1.82 5.958 3.153 7.937l.243.361a69.17 69.17 0 004.264 5.556l.528.618.528-.618a69.32 69.32 0 004.264-5.556l.243-.368c1.326-1.979 3.145-4.687 3.145-7.93-.006-.056-.013-.111-.013-.167z"/><path d="M20.833 7.639a3.472 3.472 0 100-6.945 3.472 3.472 0 000 6.945z"/></svg><svg fill="none" viewBox="0 0 18 18" id="search" xmlns="http://www.w3.org/2000/svg"><path d="M17.125 16.241l-4.72-4.72a6.887 6.887 0 10-.884.884l4.72 4.72.884-.884zM1.5 7.125a5.625 5.625 0 115.625 5.625A5.631 5.631 0 011.5 7.125z" fill="#fff"/></svg><svg viewBox="0 0 13 11" id="tele" xmlns="http://www.w3.org/2000/svg"><path d="M.22 5.146l2.873 1.053 1.12 3.544c.049.24.341.287.536.143l1.607-1.293c.147-.143.39-.143.585 0l2.874 2.06c.195.143.487.047.536-.192L12.494.405c.048-.24-.195-.48-.439-.383L.22 4.523c-.292.096-.292.527 0 .623zm3.847.526l5.65-3.4c.098-.048.195.096.098.144L5.187 6.678c-.146.144-.292.335-.292.575L4.75 8.402c0 .143-.243.191-.292 0l-.585-2.107a.42.42 0 01.195-.623z"/></svg><svg viewBox="0 0 40 40" id="time" xmlns="http://www.w3.org/2000/svg"><path d="M17.917 13.333a1.26 1.26 0 00-1.25 1.25V22.4c0 .583.3 1.117.783 1.417l6.067 3.733a1.19 1.19 0 001.233-2.033l-5.583-3.35v-7.584a1.26 1.26 0 00-1.25-1.25z"/><path d="M29.867 20a11.596 11.596 0 01-11.534 13.333c-6.5 0-11.666-5.166-11.666-11.666S11.833 10 18.333 10c1.167 0 2.284.167 3.334.483V7.05a14.599 14.599 0 00-3.334-.383c-8.333 0-15 6.666-15 15 0 8.333 6.667 15 15 15A14.94 14.94 0 0033.233 20h-3.366z"/><path d="M36.667 8.333h-3.334V5c0-.917-.75-1.667-1.666-1.667C30.75 3.333 30 4.083 30 5v3.333h-3.333C25.75 8.333 25 9.083 25 10s.75 1.667 1.667 1.667H30V15c0 .917.75 1.667 1.667 1.667.916 0 1.666-.75 1.666-1.667v-3.333h3.334c.916 0 1.666-.75 1.666-1.667s-.75-1.667-1.666-1.667z"/></svg><svg viewBox="0 0 13 9" id="vk" xmlns="http://www.w3.org/2000/svg"><path d="M12.384 7.232c0-.055-.05-.055-.05-.11-.199-.442-.646-.994-1.243-1.601-.299-.276-.448-.497-.547-.608-.15-.22-.15-.386-.1-.607.05-.166.249-.442.597-.938.199-.276.298-.442.447-.608.747-1.104 1.095-1.822.995-2.153l-.05-.055c-.05-.055-.099-.11-.198-.11-.1-.056-.25-.056-.398 0H9.598l-.05.055C9.5.552 9.5.552 9.5.607c-.199.608-.447 1.104-.696 1.656-.15.276-.299.552-.448.773-.149.221-.248.387-.348.497-.1.11-.199.166-.249.276-.05.055-.149.11-.149.055-.05 0-.1 0-.1-.055l-.148-.165c-.05-.056-.05-.166-.1-.276v-.276-.332-.331-.607-.497-.387-.33c0-.056-.05-.166-.05-.222L7.062.221c-.05-.055-.149-.055-.199-.11A4.039 4.039 0 005.968 0c-.796 0-1.343.055-1.542.166-.1.055-.199.11-.248.22-.1.11-.1.166-.05.166.249.055.447.166.547.331l.05.11c.05.056.05.166.1.332.049.166.049.331.049.552v.883c0 .276-.05.442-.05.608 0 .165-.05.276-.1.33-.05.111-.05.166-.099.166 0 0 0 .056-.05.056s-.099.055-.198.055c-.05 0-.15-.055-.2-.11a.636.636 0 01-.248-.277c-.1-.11-.199-.276-.298-.497-.1-.22-.25-.441-.349-.772l-.1-.221c-.049-.11-.148-.331-.248-.607-.1-.276-.199-.497-.298-.773a.76.76 0 00-.15-.221h-.05S2.388.442 2.338.442s-.1-.056-.149-.056H.398c-.2 0-.299.056-.348.11L0 .553v.11c0 .056 0 .11.05.221.248.663.547 1.325.845 1.988.299.607.597 1.159.796 1.545.249.387.447.773.696 1.105.249.33.398.552.448.662l.199.22.149.166c.1.11.249.276.448.442.198.166.447.331.696.497.248.166.547.276.845.386.348.11.647.166.945.11h.746c.15 0 .249-.054.348-.165l.05-.055c0-.055.05-.055.05-.11v-.221c0-.221 0-.387.05-.552.05-.166.05-.276.1-.387.049-.11.099-.165.148-.22l.1-.111h.05c.099-.055.248 0 .348.11.149.11.298.276.397.442.1.166.25.331.448.552.199.221.348.387.448.442l.149.11c.1.055.199.11.348.166.15.055.249.055.348.055l1.691-.055c.15 0 .299-.055.398-.11.1-.056.15-.111.15-.221v-.221c-.1-.11-.1-.166-.1-.221z"/></svg><svg viewBox="0 0 13 13" id="whatsapp" xmlns="http://www.w3.org/2000/svg"><path d="M10.67 1.823A6.207 6.207 0 006.273 0C2.83 0 .044 2.778.044 6.207c0 1.085.304 2.17.827 3.081L0 12.5l3.31-.868a6.367 6.367 0 002.962.738c3.44 0 6.228-2.778 6.228-6.207-.044-1.606-.653-3.168-1.83-4.34zM9.278 8.42c-.13.347-.74.695-1.045.738-.262.043-.61.043-.958-.043-.218-.087-.523-.174-.872-.348-1.567-.65-2.57-2.213-2.656-2.343-.087-.087-.654-.825-.654-1.606 0-.782.392-1.129.523-1.302.13-.174.305-.174.436-.174h.304c.088 0 .218-.043.349.26.13.304.435 1.086.479 1.129a.276.276 0 010 .26c-.044.087-.087.174-.174.26-.087.088-.175.218-.218.261-.087.087-.174.174-.087.304.087.174.392.651.87 1.085.61.52 1.09.694 1.264.781.174.087.261.044.348-.043.088-.087.392-.434.48-.608.087-.173.217-.13.348-.087.13.044.915.434 1.045.521.174.087.262.13.305.174.044.13.044.434-.087.781z"/></svg><svg viewBox="0 0 14 11" id="youtube" xmlns="http://www.w3.org/2000/svg"><path d="M13.535 4.185c0-.291-.049-.63-.049-1.018a67.146 67.146 0 00-.145-1.115c-.097-.388-.242-.68-.533-.922a1.638 1.638 0 00-.922-.436C10.771.548 9.123.5 6.892.5c-2.23 0-3.927.048-4.994.194-.339.048-.678.194-.92.436a1.935 1.935 0 00-.534.922C.347 2.39.298 2.73.298 3.167A7.87 7.87 0 00.25 4.185v2.23c0 .291.048.63.048 1.018.049.388.097.776.146 1.115.097.388.242.68.533.922.243.242.582.388.921.436 1.116.146 2.764.194 4.994.194s3.928-.048 4.994-.194c.34-.048.68-.194.922-.436.242-.243.436-.534.533-.922.097-.339.145-.678.145-1.115.049-.388.049-.727.049-1.018V5.3 4.185zM9.462 5.688l-3.83 2.376a.37.37 0 01-.243.097c-.097 0-.145 0-.242-.049a.51.51 0 01-.242-.436v-4.8a.51.51 0 01.242-.437.44.44 0 01.485 0l3.83 2.376c.146.097.243.243.243.388 0 .145-.097.388-.243.485z"/></svg></svg>